<?xml version="1.0" standalone="no"?><!DOCTYPE svg PUBLIC "-//W3C//DTD SVG 1.1//EN" "http://www.w3.org/Graphics/SVG/1.1/DTD/svg11.dtd"><svg t="1501764084777" class="icon" style="" viewBox="0 0 1024 1024" version="1.1" xmlns="http://www.w3.org/2000/svg" p-id="1239" xmlns:xlink="http://www.w3.org/1999/xlink" width="64" height="64"><defs><style type="text/css"></style></defs><path d="M512 809.984c166.016 0 297.984-132.010667 297.984-297.984S677.973333 214.016 512 214.016 214.016 346.026667 214.016 512 346.026667 809.984 512 809.984z m381.994667-339.968h88.021333v84.010667h-88.021333c-20.010667 178.005333-162.005333 320-340.010667 340.010666v88.021334h-84.010667v-88.021334c-178.005333-20.010667-320-162.005333-340.010666-340.010666H41.941333v-84.010667h88.021334c20.010667-178.005333 162.005333-320 340.010666-340.010667V41.984h84.010667v88.021333c178.005333 20.010667 320 162.005333 340.010667 340.010667z m-381.994667-128c93.994667 0 169.984 75.989333 169.984 169.984S605.994667 681.984 512 681.984 342.016 605.994667 342.016 512 418.005333 342.016 512 342.016z" fill="#AA3d38" p-id="1240"></path></svg>